{"title":"Saw.VII.3D.2010.UNRATED.DVDRip.XviD-EXViD","uid":6477649,"size":773399640,"categoryP":"video","categoryS":"movies","magnet":"?xt=urn:btih:a6156d37e996156fd27513a6c684a5eddd2c2a6f&amp;dn=Saw.VII.3D.2010.UNRATED.DVDRip.XviD-EXViD&amp;tr=udp%3A%2F%2Ftracker.openbittorrent.com%3A80&amp;tr=udp%3A%2F%2Fopen.demonii.com%3A1337&amp;tr=udp%3A%2F%2Ftracker.coppersurfer.tk%3A6969&amp;tr=udp%3A%2F%2Fexodus.desync.com%3A6969","seeders":0,"leechers":0,"uploader":"sceneline","files":59,"time":1308376176,"description":"- &lt;a href=&quot;\nhttp://www.Speed.Cd&quot; rel=&quot;nofollow&quot; target=&quot;_NEW&quot;&gt;\nhttp://www.Speed.Cd&lt;/a&gt; \n       &lt;a href=&quot;\nhttp://www.Speed.Cd&quot; rel=&quot;nofollow&quot; target=&quot;_NEW&quot;&gt;\nhttp://www.Speed.Cd&lt;/a&gt;       the fast  and The Hottest Private Tracker on the net\n\n(((--Registration will be open on june every weekend--)))\n\nPlease Seed back to make the speed Faster!!!\n\n------------------nfo--------------------------\n-                                                                                                     \n       \n     \n     \n       \n       \n     \n     \n                                         \n                                         \n                EXVID                    \n                                         \n         \n                                         \n         Filled the Archives             \n                                         \n         \n                                         \n                With:                    \n                                         \n         \n                                         \n                                    \n     E240                           \n                                    \n     SP               (C) 2009      \n                                         \n     \n     \n     \n                                                                                  \n                                                                                   \n               Saw.VII.3D.2010.UNRATED.DVDRip.XviD-EXViD                            \n                                                                                   \n                                                                                  \n     \n                                                                                               \nEXViD aims to iNTERNAL those releases which have been lost in the archives.\nEXViD aims to PRE non-internal releases which have poor sources and are likely skipped by others. &lt;a href=&quot;\nhttp://www.imdb.com/title/tt1477076/&quot; rel=&quot;nofollow&quot; target=&quot;_NEW&quot;&gt;\nhttp://www.imdb.com/title/tt1477076/&lt;/a&gt;\nSubtitles: NL\nDate: 2011.06\n\nDirector: Kevin Greutert\n\nGenres: Crime | Horror | Mystery | Thriller\n\nPlot:\nAs a deadly battle rages over Jigsaw's brutal legacy, a group of Jigsaw survivors gathers to seek\nthe support of self-help guru and fellow survivor Bobby Dagen, a man whose own dark secrets unleash\na new wave of terror.\n\nCast:\nTobin Bell \t ... \tJigsaw / John Kramer \nCostas Mandylor \t ... \tDet. Mark Hoffman \nBetsy Russell \t ... \tJill Tuck \nCary Elwes \t ... \tDr. Lawrence Gordon \nSean Patrick Flanery \t ... \tBobby Dagen \nChad Donella \t ... \t Det. Matt Gibson \nGina Holden \t ... \t Joyce Dagen \nLaurence Anthony \t ... \t Det. Rogers \nDean Armstrong \t ... \tCale \nNaomi Snieckus \t ... \t Nina \nRebecca Marshall \t ... \t Suzanne \nJames Van Patten \t ... \tDr. Heffner \nSebastian Pigott \t ... \t Brad \nJon Cor \t ... \t Ryan \nAnne Lee Greene \t ... \t Dina (as Anne Greene)\t\n\nStats:\nFormat                           : AVI\nFormat/Info                      : Audio Video Interleave\nFile size                        : 701 MiB\nDuration                         : 1h 26mn\nOverall bit rate                 : 1 133 Kbps\nWriting application              : VirtualDubMod 1.5.10.2 (build 2540/release)\nWriting library                  : VirtualDubMod build 2540/release\n\nVideo\nID                               : 0\nFormat                           : MPEG-4 Visual\nFormat profile                   : Advanced Simple@L5\nFormat settings, BVOP            : Yes\nFormat settings, QPel            : No\nFormat settings, GMC             : No warppoints\nFormat settings, Matrix          : Default (H.263)\nMuxing mode                      : Packed bitstream\nCodec ID                         : XVID\nCodec ID/Hint                    : XviD\nDuration                         : 1h 26mn\nBit rate                         : 996 Kbps\nWidth                            : 624 pixels\nHeight                           : 352 pixels\nDisplay aspect ratio             : 16:9\nFrame rate                       : 25.000 fps\nColor space                      : YUV\nChroma subsampling               : 4:2:0\nBit depth                        : 8 bits\nScan type                        : Progressive\nBits/(Pixel*Frame)               : 0.181\nStream size                      : 616 MiB (88%)\nWriting library                  : XviD 62\n\nAudio\nID                               : 1\nFormat                           : MPEG Audio\nFormat version                   : Version 1\nFormat profile                   : Layer 3\nMode                             : Joint stereo\nMode extension                   : MS Stereo\nCodec ID                         : 55\nCodec ID/Hint                    : MP3\nDuration                         : 1h 26mn\nBit rate mode                    : Variable\nBit rate                         : 128 Kbps\nChannel(s)                       : 2 channels\nSampling rate                    : 48.0 KHz\nStream size                      : 77.2 MiB (11%)\nAlignment                        : Aligned on interleaves\nInterleave, duration             : 24 ms (0.60 video frame)\nInterleave, preload duration     : 410 ms\nWriting library                  : LAME3.90.\nEncoding settings                : -m j -V 4 -q 2 -lowpass 17.6 --abr 128\n\n\n\n\nRelease notes:\n3D version of the UNRATED cut.\n\nenjoy!\n\nLooking for:\n75TB+ Archives\nDUTCH/FLEMiSH Archives\n                                                                                                    \nGreets: CRBS EPiSODE FiCO FLS iLS KLASSiGER LiPSYNC MADE NODLABS RUNNER SPRiNTER      \n   \n\n                                                                    ASCII DONE BY XX^NFO 2oo9","torrent":{"xt":"urn:btih:a6156d37e996156fd27513a6c684a5eddd2c2a6f","amp;dn":"Saw.VII.3D.2010.UNRATED.DVDRip.XviD-EXViD","amp;tr":["udp%3A%2F%2Ftracker.openbittorrent.com%3A80","udp%3A%2F%2Fopen.demonii.com%3A1337","udp%3A%2F%2Ftracker.coppersurfer.tk%3A6969","udp%3A%2F%2Fexodus.desync.com%3A6969"],"infoHash":"a6156d37e996156fd27513a6c684a5eddd2c2a6f","infoHashBuffer":{"type":"Buffer","data":[166,21,109,55,233,150,21,111,210,117,19,166,198,132,165,237,221,44,42,111]},"announce":[],"urlList":[]}}